<?xml version="1.0" encoding="utf-8"?>
<!-- Generator: Adobe Illustrator 16.0.0, SVG Export Plug-In . SVG Version: 6.00 Build 0)  -->
<!DOCTYPE svg PUBLIC "-//W3C//DTD SVG 1.1//EN" "http://www.w3.org/Graphics/SVG/1.1/DTD/svg11.dtd">
<svg version="1.1" id="Layer_8" xmlns="http://www.w3.org/2000/svg" xmlns:xlink="http://www.w3.org/1999/xlink" x="0px" y="0px"
	 width="718.858px" height="208.588px" viewBox="23.642 87.912 718.858 208.588"
	 enable-background="new 23.642 87.912 718.858 208.588" xml:space="preserve">
<path fill="#004289" d="M49.666,248.521c4.158,6.047,10.385,9.069,18.7,9.069c8.091,0,14.053-2.172,17.884-6.522
	c3.833-4.353,5.759-14.008,5.759-28.969V110.309l38.479,20.185v89.372c0,18.313-2.395,31.944-7.163,40.897
	c-4.779,8.953-11.924,15.828-21.421,20.625c-9.496,4.797-21.205,7.203-35.105,7.203c-18.374,0-32.763-4.852-43.156-14.563"/>
<g>
	<path fill="#FBBA00" d="M130.482,288.525V130.458l38.479-20.179v158.133L130.482,288.525z"/>
</g>
<g>
	<path fill="#FBBA00" d="M162.308,185.475v-29.506l31.792-20.237v29.574L162.308,185.475z"/>
</g>
<path fill="#FBBA00" d="M94.067,111.39L92,110.311l38.479-20.235V92.3L94.067,111.39z"/>
<g>
	<path fill="#004289" d="M130.482,92.292v-2.201l38.478,20.179l-2.031,1.074L130.482,92.292z"/>
</g>
<g>
	<path fill="#004289" d="M285.389,217.91c0,5.053-0.859,9.805-2.578,14.258s-4.324,8.242-7.813,11.367
		c-3.906,3.543-8.517,6.146-13.828,7.813c-5.313,1.668-11.434,2.5-18.359,2.5c-5.156,0-10-0.195-14.531-0.586
		c-4.53-0.391-8.516-0.951-11.952-1.68v-23.594h2.655c2.345,0.938,4.791,1.811,7.345,2.617c2.551,0.809,5.833,1.211,9.844,1.211
		c5.156,0,9.127-0.729,11.914-2.188c2.786-1.457,4.752-3.487,5.897-6.094c1.197-2.552,1.861-5.509,1.992-8.867
		c0.129-3.358,0.195-7.096,0.195-11.211v-46.641h-26.642v-21.094h55.859L285.389,217.91L285.389,217.91z"/>
	<path fill="#004289" d="M295.467,252.051l39.297-116.328h31.875l39.297,116.328h-30.078l-7.266-23.75h-36.563l-7.266,23.75H295.467
		z M362.186,207.207l-11.875-38.359l-11.875,38.359H362.186z"/>
	<path fill="#004289" d="M525.075,252.051H489.45l-32.422-42.656H446.56v42.656h-29.063V135.723h46.798
		c6.457,0,12.082,0.404,16.875,1.211c4.791,0.808,9.219,2.488,13.28,5.039c4.166,2.656,7.474,6.029,9.922,10.117
		c2.447,4.089,3.673,9.285,3.673,15.586c0,8.906-2.007,16.133-6.017,21.68c-4.012,5.547-9.375,9.961-16.094,13.242L525.075,252.051z
		 M478.045,171.348c0-2.916-0.562-5.43-1.681-7.539c-1.121-2.109-2.981-3.736-5.586-4.883c-1.824-0.781-3.854-1.275-6.094-1.484
		c-2.24-0.208-5.027-0.313-8.359-0.313h-9.766v31.328h8.359c4.063,0,7.512-0.246,10.352-0.742c2.838-0.494,5.246-1.549,7.227-3.164
		c1.875-1.457,3.269-3.203,4.181-5.234C477.588,177.285,478.045,174.629,478.045,171.348z"/>
	<path fill="#004289" d="M580.7,254.473c-15.625,0-27.645-3.774-36.055-11.328c-8.412-7.551-12.617-18.594-12.617-33.125v-74.296
		h29.219v72.578c0,8.074,1.523,14.09,4.57,18.047c3.047,3.959,8.008,5.938,14.883,5.938c6.72,0,11.652-1.9,14.806-5.703
		c3.149-3.801,4.727-9.896,4.727-18.281v-72.578h29.219v74.219c0,14.324-4.102,25.326-12.305,33.008
		C608.943,250.633,596.795,254.473,580.7,254.473z"/>
	<path fill="#004289" d="M687.811,254.16c-8.906,0-16.732-0.859-23.477-2.578c-6.746-1.719-13.009-3.854-18.789-6.406V217.52h2.655
		c5.832,4.949,12.267,8.75,19.297,11.406c7.031,2.656,13.854,3.984,20.47,3.984c1.666,0,3.867-0.182,6.602-0.547
		c2.734-0.363,4.935-0.938,6.603-1.719c2.03-0.886,3.75-2.121,5.155-3.711c1.406-1.588,2.109-3.685,2.109-6.289
		c0-2.916-1.146-5.285-3.438-7.109c-2.293-1.822-5.026-3.15-8.202-3.984c-3.959-1.041-8.191-2.031-12.695-2.969
		c-4.506-0.938-8.711-2.082-12.617-3.438c-9.012-3.177-15.469-7.447-19.375-12.813c-3.906-5.363-5.859-12.083-5.859-20.156
		c0-10.885,4.609-19.7,13.828-26.445c9.22-6.744,20.729-10.117,34.531-10.117c6.926,0,13.814,0.703,20.664,2.109
		c6.848,1.406,12.98,3.308,18.398,5.703v26.563h-2.578c-4.324-3.697-9.599-6.822-15.82-9.375c-6.225-2.551-12.617-3.828-19.18-3.828
		c-2.554,0-4.845,0.183-6.875,0.547c-2.031,0.365-4.168,1.068-6.406,2.109c-1.824,0.834-3.398,2.07-4.727,3.711
		c-1.329,1.641-1.992,3.477-1.992,5.508c0,2.969,1.055,5.326,3.164,7.07c2.108,1.746,6.184,3.32,12.227,4.727
		c3.906,0.886,7.668,1.746,11.289,2.578c3.619,0.834,7.486,1.98,11.602,3.438c8.072,2.918,14.074,6.836,18.009,11.758
		c3.932,4.922,5.897,11.42,5.897,19.492c0,11.563-4.545,20.859-13.633,27.892C715.557,250.645,703.279,254.16,687.811,254.16z"/>
</g>
<rect x="21.479" y="87.912" fill="none" width="645.679" height="202.436"/>
<rect x="17.969" y="257.277" transform="matrix(-0.6916 0.7223 -0.7223 -0.6916 253.0972 416.4152)" fill="#FFFFFF" width="39.355" height="9.93"/>
</svg>
